<svg class="icon" viewBox="0 0 1024 1024" xmlns="http://www.w3.org/2000/svg" width="64" height="64"><defs><style/></defs><path d="M546.111 10.869L932.44 225.392a85.118 85.118 0 0 1 43.903 74.303v424.6a85.118 85.118 0 0 1-43.903 74.302L546.111 1013.12a86.494 86.494 0 0 1-83.87 0L75.913 798.597a85.118 85.118 0 0 1-43.903-74.303v-424.6a85.118 85.118 0 0 1 43.903-74.302L462.241 10.87a86.494 86.494 0 0 1 83.87 0z" fill="#4C585E"/><path d="M508.448 77.908a8.768 8.768 0 0 0-8.512 0L113.608 292.43a8.32 8.32 0 0 0-4.32 7.264v424.6c0 2.975 1.632 5.76 4.32 7.263l386.328 214.524a8.768 8.768 0 0 0 8.512 0l386.328-214.524a8.32 8.32 0 0 0 4.32-7.264v-424.6a8.32 8.32 0 0 0-4.32-7.263L508.448 77.908zm37.663-67.04L932.44 225.393a85.118 85.118 0 0 1 43.903 74.303v424.6a85.118 85.118 0 0 1-43.903 74.302L546.111 1013.12a86.494 86.494 0 0 1-83.87 0L75.913 798.597a85.118 85.118 0 0 1-43.903-74.303v-424.6a85.118 85.118 0 0 1 43.903-74.302L462.241 10.87a86.494 86.494 0 0 1 83.87 0z" fill="#939FA6"/><path d="M749.18 294.447v66.687H438.85v-66.687h310.33zM528.767 546.41v34.623h119.197V546.41H528.768zm0-92.638v34.111h119.197v-34.111H528.768zm-71.903 2.56l-40.063 18.335a476.182 476.182 0 0 0-14.4-45.31v327.289h-71.934V469.579c-3.584 22.4-7.712 43.776-12.832 61.6l-58.047-20.864c11.296-34.112 20.032-91.615 23.648-134.878l47.263 6.112V273.135h71.934v98.75l32.896-13.727c6.687 15.263 14.911 33.599 21.567 50.91v-18.847h266.65v254.49h-266.65V456.397zm-29.311 213.755h324.185v68.19H427.554v-68.19z" fill="#FFF"/></svg>