<svg width="166" height="181" xmlns="http://www.w3.org/2000/svg" xmlns:xlink="http://www.w3.org/1999/xlink"><defs><path id="a" d="M0 87.2h100.3V.7H0z"/></defs><g fill="none" fill-rule="evenodd"><path d="M90.4 2l67.9 37.6a15 15 0 0 1 7.7 13v74.7a15 15 0 0 1-7.7 13l-68 37.8a15.2 15.2 0 0 1-14.7 0L7.7 140.4a15 15 0 0 1-7.7-13V52.6a15 15 0 0 1 7.7-13l68-37.8a15.2 15.2 0 0 1 14.7 0z" fill="#997B67"/><path d="M83.7 13.7c-.4-.3-1-.3-1.4 0l-68 37.7c-.4.3-.7.8-.7 1.3v74.6c0 .5.3 1 .7 1.3l68 37.7c.4.3 1 .3 1.4 0l68-37.7c.4-.3.7-.8.7-1.3V52.7c0-.5-.3-1-.7-1.3l-68-37.7zm6.7-11.8l67.9 37.7a15 15 0 0 1 7.7 13v74.7a15 15 0 0 1-7.7 13l-68 37.8a15.2 15.2 0 0 1-14.7 0L7.7 140.4a15 15 0 0 1-7.7-13V52.6a15 15 0 0 1 7.7-13l68-37.8a15.2 15.2 0 0 1 14.7 0z" fill="#CDB595" fill-rule="nonzero"/><g transform="translate(31 39)"><path d="M57 30.3H37.9v-6a6 6 0 0 1 6.1-6H56a6 6 0 0 1 5.8 4L59 26.8v-2.5a3 3 0 0 0-3-3H43.8a3 3 0 0 0-3 3v3h17.9l-1.7 3z" fill="#FFF"/><path d="M58.7 27.3l-1.6 3H39.6c-.8 0-2.3.7-3 1.3L22.6 46.2c-.6.6-1.3 2.2-1.3 3.1v10.9c0 .4.5 1.1 1 1.3l13.5 5.1c1.2.5 3.5 1 4.8 1h19a17 17 0 0 0 4.8-1l13.5-5.1c.4-.2 1-1 1-1.3V49.3c0-.9-.7-2.5-1.3-3L66.7 35c.4-.4 1.3-1.3 2.3-2l10.6 11a8.6 8.6 0 0 1 2.1 5.2v10.9c0 1.7-1.2 3.5-2.8 4.1l-13.5 5.2c-1.6.6-4.2 1-6 1h-19c-1.6 0-4.3-.4-5.8-1L21 64.3a4.8 4.8 0 0 1-2.8-4.1V49.3c0-1.7 1-4 2.1-5.2l14.2-14.6a8.3 8.3 0 0 1 5.1-2.2H58.7z" fill="#FFF"/><path d="M28 42.8c-1.6 1.7-5.4 4.1-5.4 6.7v7.1c0 1.7 1.3 3.6 2.9 4.2l10.9 4.1c1.5.6 4.2 1.1 5.8 1.1H57.8c1.7 0 4.3-.5 5.9-1l10.9-4.2a4.8 4.8 0 0 0 2.8-4.2v-7.1c0-1.6-4.1-5.7-5-6.7H27.8z" fill="#FFF"/><mask id="b" fill="#fff"><use xlink:href="#a"/></mask></g><path d="M85.7 91.2H81a113 113 0 0 1 30.3-46c2.8-2.6 6.8-4.6 10-5.4 13.8-3.2 22.8-2.9 31.8-2.7-1.8 2-3.6 4-5.7 6-.4.3-17.1 2.6-18.7 4.5-1.6 2 12.9.7 12.4 1a93.6 93.6 0 0 1-7 5.2c-.4.3-15.7 1-17.3 2.7-1.6 1.5 10.1 1.7 9.6 2-6.7 3.6-14.6 6.5-23.4 8.9-5.8 1.6-10.6 7.2-14.6 16.7l-2.7 7z" fill="#FFF"/><path d="M13.6 108c41.5-16 87.8-16 138.8.2v19.1c0 .5-.3 1-.7 1.3l-68 37.7c-.4.3-1 .3-1.4 0l-68-37.7c-.4-.3-.7-.8-.7-1.3V108zm69.6 72l-.8.4-1-.5 1.8.1zM6.6 139.7l-.6-.3v-.1l.6.4z" fill="#C9A677"/><g fill="#FFF"><path d="M65.7 141.8h-.6v-.3l-.1-.4a.5.5 0 0 0-.4-.2h-2l-1.5 9c0 .2 0 .3.2.4l.3.1h.4l-.1.6h-5.1v-.6h.4l.4-.1.3-.4 1.4-9h-2c-.2 0-.3 0-.5.2l-.2.4v.3h-.7l.3-2H66l-.4 2zm5 9.2h-5.1v-.6h.4l.5-.1.2-.4 1.5-9c0-.2 0-.3-.2-.4a.5.5 0 0 0-.4-.1h-.3v-.6h5.2v.6H72l-.5.1-.2.4-1.5 9c0 .2 0 .3.2.4l.4.1h.3l-.1.6zm18 0h-4.1l1.4-8.6a2.4 2.4 0 0 0 0-.4c0-.5 0-.8-.3-1a.9.9 0 0 0-.7-.5 1 1 0 0 0-.5.2c-.2 0-.3.2-.5.3a2 2 0 0 0-.5 1l-1.2 7.9.1.4.4.1h.3v.6h-5.2v-.6h.4l.5-.1.2-.4 1.3-7.9c0-.5 0-.8-.3-1a.9.9 0 0 0-.7-.5 1 1 0 0 0-.6.2l-.4.4-.4.6-.2.7-1.4 8.6h-4.1v-.6h.4l.5-.1.2-.4 1.5-9-.2-.4a.5.5 0 0 0-.4-.1H74v-.6H85a12.1 12.1 0 0 1 3 .4l1 .6.3.6v.2L88 150l.1.4.4.1h.3v.6zm11.2-2l-.3 2h-9.9l.1-.6h.3l.5-.1.3-.4 1.4-9c0-.2 0-.3-.2-.4a.5.5 0 0 0-.4-.1h-.3l.1-.6h9.9l-.3 2h-.6v-.3c0-.2 0-.3-.2-.4a.6.6 0 0 0-.3-.2h-4.5l-.6 3.5-.3 2.1-.6 3.4h4.5c.2 0 .3 0 .5-.2l.3-.4v-.3h.6zm10.7.3c0 .3-.2.5-.5.8l-1 .5-1.5.4a11.6 11.6 0 0 1-4.8-.3l-.8-.5a1 1 0 0 1-.4-.7v-.2l.2-1h3.2v.8c0 .4 0 .7.2 1 .2.2.4.3.7.3l.5-.1.5-.4.4-.6.2-.8.4-2a9.9 9.9 0 0 1-1.5-.8 11 11 0 0 0-2-1h-1l-1-.1.6-3.1c0-.3.1-.5.4-.8l1-.5 1.5-.4a11.6 11.6 0 0 1 4.8.3l.9.5c.2.2.3.5.3.7v.1l-.2 1h-3.2l.1-.6c0-.4 0-.8-.3-1a1 1 0 0 0-.7-.4c-.4 0-.7.2-1 .5a3 3 0 0 0-.6 1.4l-.3 2a42 42 0 0 0 1.3.9 8 8 0 0 0 4.1 1l-.5 3.1z"/><path d="M93.8 146H99l-.3 1h-5zM93.8 144h5.7l-.3 1h-5.4z"/></g><path d="M95.7 130.6a5.7 5.7 0 0 1-1.3 2.4c-.8.7-1.8 1.3-3 1.8a30.4 30.4 0 0 1-9.5 1.6H67l.1-1c.1-.4.6-.8 1-.8a2 2 0 0 0 1.4-.6c.4-.3.6-.7.7-1.2l1.7-11.7a25 25 0 0 0 12.2-3.3 74.7 74.7 0 0 1 2.6-1.5 5 5 0 0 0 2.5-3.6l.7-4.2.1-1.6c0-1.5-.3-2.6-.8-3.4-.6-.8-1.3-1.2-2.2-1.2-1 0-1.9.6-2.7 1.7-.8 1.1-1.4 2.8-1.8 5h-9l.6-3.2a4 4 0 0 1 1.3-2.4c.7-.7 1.7-1.3 2.9-1.8s2.6-1 4.2-1.2a29.3 29.3 0 0 1 9.6 0c1.5.2 2.7.6 3.8 1 1 .5 1.9 1 2.5 1.7a3 3 0 0 1 .8 2.4v.3l-1.4 10a21.1 21.1 0 0 0-10.3 2.6 254.8 254.8 0 0 0-5 2.6 4 4 0 0 0-2 3l-.6 4-.1 1.5c0 3 1 4.6 2.8 4.6.5 0 1-.2 1.5-.6.5-.3 1-.8 1.4-1.3a9.6 9.6 0 0 0 1.6-4.3h9z" fill="#FFF"/></g></svg>