<svg class="icon" viewBox="0 0 1024 1024" xmlns="http://www.w3.org/2000/svg" width="64" height="64"><defs><style/></defs><path d="M546.111 10.869L932.44 225.392a85.118 85.118 0 0 1 43.903 74.303v424.6a85.118 85.118 0 0 1-43.903 74.302L546.111 1013.12a86.494 86.494 0 0 1-83.87 0L75.913 798.597a85.118 85.118 0 0 1-43.903-74.303v-424.6a85.118 85.118 0 0 1 43.903-74.302L462.241 10.87a86.494 86.494 0 0 1 83.87 0z" fill="#1C9192"/><path d="M508.448 77.908a8.768 8.768 0 0 0-8.512 0L113.608 292.43a8.32 8.32 0 0 0-4.32 7.264v424.6c0 2.975 1.632 5.76 4.32 7.263l386.328 214.524a8.768 8.768 0 0 0 8.512 0l386.328-214.524a8.32 8.32 0 0 0 4.32-7.264v-424.6a8.32 8.32 0 0 0-4.32-7.263L508.448 77.908zm37.663-67.04L932.44 225.393a85.118 85.118 0 0 1 43.903 74.303v424.6a85.118 85.118 0 0 1-43.903 74.302L546.111 1013.12a86.494 86.494 0 0 1-83.87 0L75.913 798.597a85.118 85.118 0 0 1-43.903-74.303v-424.6a85.118 85.118 0 0 1 43.903-74.302L462.241 10.87a86.494 86.494 0 0 1 83.87 0z" fill="#3ABCBD"/><path d="M418.786 339.374h341.497c23.583 0 42.687 19.008 42.687 42.463S783.866 424.3 760.283 424.3H418.786c-23.584 0-42.687-19.007-42.687-42.463s19.103-42.463 42.687-42.463zm0 127.357h341.497c23.583 0 42.687 19.008 42.687 42.464s-19.104 42.463-42.687 42.463H418.786c-23.584 0-42.687-19.008-42.687-42.463s19.103-42.464 42.687-42.464zm0 127.358h341.497c23.583 0 42.687 19.007 42.687 42.463s-19.104 42.463-42.687 42.463H418.786c-23.584 0-42.687-19.007-42.687-42.463s19.103-42.463 42.687-42.463zm-170.749-169.82c-23.583 0-42.687-19.008-42.687-42.464s19.104-42.463 42.687-42.463c23.584 0 42.688 19.008 42.688 42.463s-19.104 42.463-42.688 42.463zm0 127.357c-23.583 0-42.687-19.008-42.687-42.463s19.104-42.464 42.687-42.464c23.584 0 42.688 19.008 42.688 42.464s-19.104 42.463-42.688 42.463zm0 127.357c-23.583 0-42.687-19.007-42.687-42.463s19.104-42.463 42.687-42.463c23.584 0 42.688 19.007 42.688 42.463s-19.104 42.463-42.688 42.463z" fill="#FFF"/></svg>